<?xml version="1.0" encoding="utf-8"?>
<!-- Generator: Adobe Illustrator 19.1.0, SVG Export Plug-In . SVG Version: 6.00 Build 0)  -->
<svg version="1.1" id="Layer_1" xmlns="http://www.w3.org/2000/svg" xmlns:xlink="http://www.w3.org/1999/xlink" x="0px" y="0px"
	 viewBox="0 0 172.4 87.4" style="enable-background:new 0 0 172.4 87.4;" xml:space="preserve">
<style type="text/css">
	.st0{fill:#007CB8;}
	.st1{fill:#00A4D7;}
	.st2{fill:#00DA6F;}
</style>
<g>
	<path class="st0" d="M-19.8-286.4c-3.1-4.6-24.2-2.6-27.4-7c-3.2-4.4-8.9-13.3-14.1-16.6c-11.4-7.4-37.7-6.7-53.5,9.9
		c-3.1,3.3-8.9,2.2-9.9,6.7c-1.3,6.2-6.3,25.2,0,25.3c3.6,0,7.1,0.1,10.6,0.1c0.5,4.4,4.3,7.9,8.9,7.9c4.5,0,8.2-3.3,8.8-7.7
		c13.4,0.2,26.7,0.3,41,0.2c0.7,4.2,4.4,7.5,8.8,7.5c4.5,0,8.2-3.4,8.8-7.7c3.9-0.1,7.9-0.2,12.1-0.3c3.6-0.1,6.6-8.4,6.7-14.1
		C-18.9-283.9-19.1-285.4-19.8-286.4z"/>
	<path class="st1" d="M-33.8-278.4c-3.1-4.6-24.2-2.6-27.4-7c-3.2-4.4-8.9-13.3-14.1-16.6c-11.4-7.4-37.7-6.7-53.5,9.9
		c-3.1,3.3-8.9,2.2-9.9,6.7c-1.3,6.2-6.3,25.2,0,25.3c3.6,0,7.1,0.1,10.6,0.1c0.5,4.4,4.3,7.9,8.9,7.9c4.5,0,8.2-3.3,8.8-7.7
		c13.4,0.2,26.7,0.3,41,0.2c0.7,4.2,4.4,7.5,8.8,7.5c4.5,0,8.2-3.4,8.8-7.7c3.9-0.1,7.9-0.2,12.1-0.3c3.6-0.1,6.6-8.4,6.7-14.1
		C-32.9-275.9-33.1-277.4-33.8-278.4z"/>
	
		<text transform="matrix(1 0 0 1 -595.9069 -243.0083)" class="st1" style="font-family:'MontserratAlternates-Regular'; font-size:98.0882px;">AVLpark</text>
	<path class="st2" d="M-49.8-270.4c-3.1-4.6-24.2-2.6-27.4-7c-3.2-4.4-8.9-13.3-14.1-16.6c-11.4-7.4-37.7-6.7-53.5,9.9
		c-3.1,3.3-8.9,2.2-9.9,6.7c-1.3,6.2-6.3,25.2,0,25.3c3.6,0,7.1,0.1,10.6,0.1c0.5,4.4,4.3,7.9,8.9,7.9c4.5,0,8.2-3.3,8.8-7.7
		c13.4,0.2,26.7,0.3,41,0.2c0.7,4.2,4.4,7.5,8.8,7.5c4.5,0,8.2-3.4,8.8-7.7c3.9-0.1,7.9-0.2,12.1-0.3c3.6-0.1,6.6-8.4,6.7-14.1
		C-48.9-267.9-49.1-269.4-49.8-270.4z"/>
	
		<text transform="matrix(1 0 0 1 -363.2448 -214.1423)" class="st1" style="font-family:'MontserratAlternates-Regular'; font-size:26.3511px;">Find your happy space</text>
</g>
<g>
	<path class="st1" d="M-583.3,131V91.6c0-10.1,2.6-17.7,7.7-23c5.1-5.2,12.2-7.8,21.3-7.8c9.1,0,16.2,2.6,21.3,7.7
		c5.1,5.2,7.6,12.7,7.6,22.5v40h-11.7v-17h-34.6v17H-583.3z M-571.7,91.1v12.2h34.6V91.6c0-6.3-1.5-11.2-4.6-14.7
		c-3.1-3.5-7.3-5.2-12.8-5.2c-5.4,0-9.7,1.7-12.7,5C-570.2,80-571.7,84.8-571.7,91.1z"/>
	<path class="st1" d="M-475.9,131h-12.9l-27.6-68.6h12.9l21.1,51.2l21.1-51.2h12.9L-475.9,131z"/>
	<path class="st1" d="M-438.5,131V62.4h11.6V120h31.3v11H-438.5z"/>
	<path class="st1" d="M-356.6,78c7,0,13,2.4,18,7.3c5,4.8,7.5,11.3,7.5,19.3c0,8-2.5,14.6-7.4,19.6c-4.9,5-10.7,7.6-17.3,7.6
		c-6.6,0-12.5-2.9-17.7-8.6V150h-11V78.8h11v9.1C-369.2,81.3-363.6,78-356.6,78z M-373.8,105c0,5,1.5,9,4.5,12.2
		c3,3.2,6.7,4.8,11,4.8c4.3,0,8.1-1.6,11.3-4.7c3.2-3.1,4.8-7.2,4.8-12.2c0-5-1.6-9.2-4.7-12.5c-3.1-3.3-6.9-5-11.3-5
		c-4.4,0-8.1,1.7-11.1,5C-372.3,95.9-373.8,100-373.8,105z"/>
	<path class="st1" d="M-314.6,124.3c-4.9-5-7.4-11.5-7.4-19.6c0-8.1,2.5-14.6,7.6-19.4c5-4.8,11-7.3,17.9-7.3s12.5,3.3,17,9.8v-9h11
		V131h-11v-8.5c-2.1,3-4.8,5.3-8,6.9c-3.2,1.6-6.5,2.4-9.8,2.4C-304,131.8-309.7,129.3-314.6,124.3z M-311,105.1
		c0,5,1.6,9.1,4.8,12.2c3.2,3.1,7,4.7,11.3,4.7c4.3,0,8-1.6,11-4.8s4.5-7.2,4.5-12.2c0-5-1.5-9.1-4.5-12.5s-6.7-5-11.1-5
		c-4.4,0-8.1,1.7-11.3,5C-309.4,96-311,100.1-311,105.1z"/>
	<path class="st1" d="M-225.4,89.1c-5.4,0-9.5,1.8-12.3,5.3s-4.1,8.3-4.1,14.2V131h-11V78.8h11v10.5c1.8-3.3,4.2-5.9,7.2-8
		c3-2.1,6.3-3.2,9.7-3.2l0.1,11.1C-225,89.1-225.2,89.1-225.4,89.1z"/>
	<path class="st1" d="M-202.8,131h-11V58.2h11V101l21.2-22.2h14.1l-19.8,20.7L-166,131h-13.3l-15.5-22.9l-7.9,8V131z"/>
</g>
<g>
	<g>
		<path class="st0" d="M155.2,33.6c-3.1-4.6-24.2-2.6-27.4-7c-3.2-4.4-8.9-13.3-14.1-16.6C102.4,2.7,76.1,3.3,60.3,20
			c-3.1,3.3-8.9,2.2-9.9,6.7c-1.3,6.2-6.3,25.2,0,25.3C54,52,57.5,52,61,52.1c0.5,4.4,4.3,7.9,8.9,7.9c4.5,0,8.2-3.3,8.8-7.7
			c13.4,0.2,26.7,0.3,41,0.2c0.7,4.2,4.4,7.5,8.8,7.5c4.5,0,8.2-3.4,8.8-7.7c3.9-0.1,7.9-0.2,12.1-0.3c3.6-0.1,6.6-8.4,6.7-14.1
			C156.1,36.1,155.9,34.6,155.2,33.6z"/>
	</g>
	<g>
		<path class="st1" d="M141.2,41.6c-3.1-4.6-24.2-2.6-27.4-7c-3.2-4.4-8.9-13.3-14.1-16.6c-11.4-7.4-37.7-6.7-53.5,9.9
			c-3.1,3.3-8.9,2.2-9.9,6.7c-1.3,6.2-6.3,25.2,0,25.3C40,60,43.5,60,47,60.1c0.5,4.4,4.3,7.9,8.9,7.9c4.5,0,8.2-3.3,8.8-7.7
			c13.4,0.2,26.7,0.3,41,0.2c0.7,4.2,4.4,7.5,8.8,7.5c4.5,0,8.2-3.4,8.8-7.7c3.9-0.1,7.9-0.2,12.1-0.3c3.6-0.1,6.6-8.4,6.7-14.1
			C142.1,44.1,141.9,42.6,141.2,41.6z"/>
	</g>
	<g>
		<path class="st2" d="M125.2,49.6c-3.1-4.6-24.2-2.6-27.4-7c-3.2-4.4-8.9-13.3-14.1-16.6c-11.4-7.4-37.7-6.7-53.5,9.9
			c-3.1,3.3-8.9,2.2-9.9,6.7c-1.3,6.2-6.3,25.2,0,25.3C24,68,27.5,68,31,68.1c0.5,4.4,4.3,7.9,8.9,7.9c4.5,0,8.2-3.3,8.8-7.7
			c13.4,0.2,26.7,0.3,41,0.2c0.7,4.2,4.4,7.5,8.8,7.5c4.5,0,8.2-3.4,8.8-7.7c3.9-0.1,7.9-0.2,12.1-0.3c3.6-0.1,6.6-8.4,6.7-14.1
			C126.1,52.1,125.9,50.6,125.2,49.6z"/>
	</g>
</g>
<g>
	<path class="st1" d="M-292.3,231.7c-1.3-0.6-2.7-0.8-4.3-0.8c-1.6,0-2.7,0.4-3.4,1.1c-0.7,0.7-1,1.7-1,2.9v2.2h6.5v2.9h-6.5v6.8
		h-3.1v-11.5c0-2.4,0.6-4.2,2-5.5c1.3-1.2,3-1.9,5.1-1.9c0.8,0,1.8,0.1,2.9,0.3c1.1,0.2,1.9,0.4,2.5,0.7L-292.3,231.7z"/>
	<path class="st1" d="M-289.3,229.9c-0.4-0.4-0.6-0.8-0.6-1.3c0-0.5,0.2-0.9,0.6-1.3c0.4-0.4,0.8-0.6,1.3-0.6c0.5,0,0.9,0.2,1.3,0.6
		c0.4,0.4,0.6,0.8,0.6,1.3c0,0.5-0.2,0.9-0.6,1.3c-0.4,0.4-0.8,0.6-1.3,0.6C-288.4,230.4-288.9,230.2-289.3,229.9z M-286.5,246.7h-3
		v-14h3V246.7z"/>
	<path class="st1" d="M-279.3,239.1v7.6h-3v-14h3v2.6c0.5-0.9,1.1-1.5,2-2s1.7-0.7,2.7-0.7c1.6,0,2.9,0.5,3.8,1.4
		c1,1,1.5,2.4,1.5,4.2v8.6h-3V239c0-2.6-1.1-3.9-3.2-3.9c-1,0-1.9,0.3-2.7,1C-278.9,236.8-279.3,237.8-279.3,239.1z"/>
	<path class="st1" d="M-264.1,244.9c-1.3-1.3-2-3.1-2-5.3c0-2.2,0.7-3.9,2-5.2c1.4-1.3,3-1.9,4.8-1.9c1.9,0,3.4,0.8,4.5,2.4v-7.7h3
		v19.6h-3v-2.1c-1.1,1.5-2.7,2.3-4.8,2.3C-261.2,246.9-262.8,246.2-264.1,244.9z M-263.1,239.7c0,1.3,0.4,2.4,1.3,3.3
		c0.9,0.8,1.9,1.3,3,1.3c1.2,0,2.1-0.4,3-1.3c0.8-0.9,1.2-1.9,1.2-3.3c0-1.3-0.4-2.5-1.2-3.3c-0.8-0.9-1.8-1.3-3-1.3
		c-1.2,0-2.2,0.4-3,1.3C-262.7,237.3-263.1,238.4-263.1,239.7z"/>
	<path class="st1" d="M-234.4,249.6c2.6,0,3.9-1.7,3.9-5v-0.9c-1.2,1.2-2.7,1.8-4.5,1.8c-3.6,0-5.5-2-5.5-6v-6.9h3v5.6
		c0,1.6,0.2,2.8,0.8,3.5s1.4,1,2.6,1s2.1-0.3,2.7-0.9c0.6-0.6,0.9-1.6,1-2.8v-6.3h3v12c0,2.4-0.6,4.3-1.9,5.6c-1.3,1.3-2.9,2-4.9,2
		c-1.5,0-2.9-0.4-4.1-1.1s-2-1.8-2.5-3.2l2.7-1.1C-237.7,248.7-236.4,249.6-234.4,249.6z"/>
	<path class="st1" d="M-211.5,244.8c-1.4,1.4-3.2,2.1-5.3,2.1c-2.1,0-3.9-0.7-5.3-2.1s-2.1-3.1-2.1-5.1c0-2,0.7-3.7,2.1-5.1
		s3.2-2.1,5.3-2.1c2.1,0,3.9,0.7,5.3,2.1s2.1,3.1,2.1,5.1C-209.4,241.7-210.1,243.4-211.5,244.8z M-220,243c0.8,0.9,1.9,1.3,3.2,1.3
		c1.3,0,2.3-0.4,3.2-1.3s1.3-2,1.3-3.3c0-1.4-0.4-2.5-1.3-3.3s-1.9-1.3-3.2-1.3c-1.3,0-2.3,0.4-3.2,1.3c-0.8,0.9-1.3,2-1.3,3.3
		C-221.2,241-220.8,242.1-220,243z"/>
	<path class="st1" d="M-196.3,240.2v-7.6h3v14h-3v-2.6c-0.5,0.9-1.1,1.5-2,2c-0.8,0.5-1.7,0.7-2.7,0.7c-1.6,0-2.9-0.5-3.8-1.4
		c-1-1-1.5-2.4-1.5-4.2v-8.6h3v7.7c0,2.6,1.1,3.9,3.2,3.9c1,0,1.9-0.3,2.7-1C-196.7,242.5-196.3,241.5-196.3,240.2z"/>
	<path class="st1" d="M-181.7,235.4c-1.5,0-2.6,0.5-3.3,1.4c-0.7,0.9-1.1,2.2-1.1,3.8v6h-3v-14h3v2.8c0.5-0.9,1.1-1.6,1.9-2.2
		c0.8-0.6,1.7-0.9,2.6-0.9l0,3C-181.6,235.4-181.7,235.4-181.7,235.4z"/>
	<path class="st1" d="M-168.4,239.1v7.6h-3v-19.5h3v8.1c0.4-0.9,1.1-1.5,1.9-2c0.9-0.5,1.8-0.7,2.8-0.7c1.6,0,2.9,0.5,3.8,1.4
		c1,1,1.5,2.4,1.5,4.2v8.6h-3V239c0-2.6-1.1-3.9-3.2-3.9c-1,0-1.9,0.3-2.7,1C-168.1,236.8-168.4,237.8-168.4,239.1z"/>
	<path class="st1" d="M-153.3,244.9c-1.3-1.3-2-3.1-2-5.3c0-2.2,0.7-3.9,2-5.2c1.4-1.3,3-1.9,4.8-1.9s3.4,0.9,4.6,2.6v-2.4h3v14h-3
		v-2.3c-0.6,0.8-1.3,1.4-2.1,1.9c-0.9,0.4-1.7,0.6-2.6,0.6C-150.4,246.9-152,246.2-153.3,244.9z M-152.3,239.7
		c0,1.3,0.4,2.4,1.3,3.3c0.9,0.8,1.9,1.3,3,1.3c1.2,0,2.1-0.4,3-1.3c0.8-0.9,1.2-1.9,1.2-3.3c0-1.3-0.4-2.5-1.2-3.3
		c-0.8-0.9-1.8-1.3-3-1.3c-1.2,0-2.2,0.4-3,1.3C-151.9,237.3-152.3,238.4-152.3,239.7z"/>
	<path class="st1" d="M-129.1,232.4c1.9,0,3.5,0.7,4.8,1.9c1.3,1.3,2,3,2,5.2c0,2.2-0.7,3.9-2,5.3s-2.9,2-4.6,2s-3.4-0.8-4.8-2.3
		v7.2h-3v-19.1h3v2.5C-132.5,233.3-131,232.4-129.1,232.4z M-133.8,239.7c0,1.3,0.4,2.4,1.2,3.3c0.8,0.9,1.8,1.3,3,1.3
		c1.2,0,2.2-0.4,3-1.3c0.9-0.8,1.3-1.9,1.3-3.3s-0.4-2.5-1.3-3.3c-0.8-0.9-1.9-1.3-3-1.3s-2.2,0.4-3,1.3
		C-133.4,237.2-133.8,238.3-133.8,239.7z"/>
	<path class="st1" d="M-111.4,232.4c1.9,0,3.5,0.7,4.8,1.9c1.3,1.3,2,3,2,5.2c0,2.2-0.7,3.9-2,5.3s-2.9,2-4.6,2s-3.4-0.8-4.8-2.3
		v7.2h-3v-19.1h3v2.5C-114.8,233.3-113.3,232.4-111.4,232.4z M-116,239.7c0,1.3,0.4,2.4,1.2,3.3c0.8,0.9,1.8,1.3,3,1.3
		c1.2,0,2.2-0.4,3-1.3c0.9-0.8,1.3-1.9,1.3-3.3s-0.4-2.5-1.3-3.3c-0.8-0.9-1.9-1.3-3-1.3s-2.2,0.4-3,1.3
		C-115.6,237.2-116,238.3-116,239.7z"/>
	<path class="st1" d="M-95.4,249.6c2.6,0,3.9-1.7,3.9-5v-0.9c-1.2,1.2-2.7,1.8-4.5,1.8c-3.6,0-5.5-2-5.5-6v-6.9h3v5.6
		c0,1.6,0.2,2.8,0.8,3.5s1.4,1,2.6,1s2.1-0.3,2.7-0.9c0.6-0.6,0.9-1.6,1-2.8v-6.3h3v12c0,2.4-0.6,4.3-1.9,5.6c-1.3,1.3-2.9,2-4.9,2
		c-1.5,0-2.9-0.4-4.1-1.1s-2-1.8-2.5-3.2l2.7-1.1C-98.7,248.7-97.4,249.6-95.4,249.6z"/>
	<path class="st1" d="M-67,242.5c0,1.3-0.5,2.4-1.4,3.2c-1,0.8-2.2,1.2-3.7,1.2c-1,0-2.1-0.2-3.2-0.6s-2.1-0.9-2.9-1.6l1.4-2.3
		c1.6,1.2,3.2,1.8,4.7,1.8c0.7,0,1.2-0.2,1.6-0.5c0.4-0.3,0.6-0.7,0.6-1.2c0-0.7-0.9-1.3-2.8-1.9c-0.1-0.1-0.2-0.1-0.3-0.1
		c-2.9-0.8-4.4-2.1-4.4-4c0-1.3,0.5-2.3,1.5-3.1c1-0.8,2.3-1.2,3.9-1.2c1.6,0,3.1,0.5,4.6,1.4l-1.1,2.2c-1.1-0.8-2.4-1.1-3.7-1.1
		c-0.7,0-1.3,0.1-1.7,0.4c-0.4,0.3-0.7,0.6-0.7,1.1c0,0.5,0.2,0.8,0.7,1c0.3,0.2,0.8,0.3,1.3,0.4c0.6,0.1,1.1,0.3,1.5,0.4
		c0.4,0.1,0.9,0.3,1.3,0.5c0.4,0.2,0.9,0.4,1.3,0.7C-67.5,240.2-67,241.1-67,242.5z"/>
	<path class="st1" d="M-56.2,232.4c1.9,0,3.5,0.7,4.8,1.9c1.3,1.3,2,3,2,5.2c0,2.2-0.7,3.9-2,5.3s-2.9,2-4.6,2s-3.4-0.8-4.8-2.3v7.2
		h-3v-19.1h3v2.5C-59.6,233.3-58.1,232.4-56.2,232.4z M-60.8,239.7c0,1.3,0.4,2.4,1.2,3.3c0.8,0.9,1.8,1.3,3,1.3
		c1.2,0,2.2-0.4,3-1.3c0.9-0.8,1.3-1.9,1.3-3.3s-0.4-2.5-1.3-3.3c-0.8-0.9-1.9-1.3-3-1.3s-2.2,0.4-3,1.3
		C-60.4,237.2-60.8,238.3-60.8,239.7z"/>
	<path class="st1" d="M-44.9,244.9c-1.3-1.3-2-3.1-2-5.3c0-2.2,0.7-3.9,2-5.2c1.4-1.3,3-1.9,4.8-1.9s3.4,0.9,4.6,2.6v-2.4h3v14h-3
		v-2.3c-0.6,0.8-1.3,1.4-2.1,1.9c-0.9,0.4-1.7,0.6-2.6,0.6C-42,246.9-43.6,246.2-44.9,244.9z M-43.9,239.7c0,1.3,0.4,2.4,1.3,3.3
		c0.9,0.8,1.9,1.3,3,1.3c1.2,0,2.1-0.4,3-1.3c0.8-0.9,1.2-1.9,1.2-3.3c0-1.3-0.4-2.5-1.2-3.3c-0.8-0.9-1.8-1.3-3-1.3
		c-1.2,0-2.2,0.4-3,1.3C-43.5,237.3-43.9,238.4-43.9,239.7z"/>
	<path class="st1" d="M-22.1,246.9c-2,0-3.6-0.7-5-2s-2.1-3.1-2.1-5.2c0-2.1,0.7-3.9,2.2-5.2s3.3-2,5.4-2c2.1,0,3.9,0.7,5.3,2.2
		l-1.7,2.1c-1.2-1.1-2.4-1.6-3.7-1.6c-1.2,0-2.3,0.4-3.2,1.2c-0.9,0.8-1.4,1.9-1.4,3.2s0.4,2.4,1.3,3.3c0.9,0.9,2,1.3,3.3,1.3
		s2.5-0.6,3.7-1.8l1.7,1.9C-17.9,246-19.8,246.9-22.1,246.9z"/>
	<path class="st1" d="M-6.7,232.4c1.9,0,3.5,0.5,4.8,1.6c1.3,1.1,1.9,2.4,1.9,4.2l0,0.1l-10.2,4.3c0.9,1.1,2.2,1.7,3.7,1.7
		s2.9-0.6,3.9-1.8l1.7,1.9c-1.7,1.7-3.6,2.6-5.9,2.6c-2,0-3.7-0.7-5.1-2s-2.1-3.1-2.1-5.2c0-1.5,0.4-2.8,1.1-3.9
		c0.7-1.1,1.7-2,2.7-2.5C-9.1,232.7-7.9,232.4-6.7,232.4z M-11.2,239.7c0,0.2,0,0.4,0,0.5l7.8-3.3c-0.6-1.2-1.7-1.7-3.2-1.7
		c-1.2,0-2.2,0.4-3.2,1.2C-10.7,237.2-11.2,238.3-11.2,239.7z"/>
</g>
</svg>
