<?xml version="1.0" encoding="utf-8"?>
<!-- Generator: Adobe Illustrator 19.1.0, SVG Export Plug-In . SVG Version: 6.00 Build 0)  -->
<svg version="1.1" id="Layer_1" xmlns="http://www.w3.org/2000/svg" xmlns:xlink="http://www.w3.org/1999/xlink" x="0px" y="0px"
	 viewBox="0 0 431 99.3" style="enable-background:new 0 0 431 99.3;" xml:space="preserve">
<style type="text/css">
	.st0{fill:#007CB8;}
	.st1{fill:#00A4D7;}
	.st2{fill:#00DA6F;}
</style>
<g>
	<path class="st0" d="M572.2-341.4c-3.1-4.6-24.2-2.6-27.4-7c-3.2-4.4-8.9-13.3-14.1-16.6c-11.4-7.4-37.7-6.7-53.5,9.9
		c-3.1,3.3-8.9,2.2-9.9,6.7c-1.3,6.2-6.3,25.2,0,25.3c3.6,0,7.1,0.1,10.6,0.1c0.5,4.4,4.3,7.9,8.9,7.9c4.5,0,8.2-3.3,8.8-7.7
		c13.4,0.2,26.7,0.3,41,0.2c0.7,4.2,4.4,7.5,8.8,7.5c4.5,0,8.2-3.4,8.8-7.7c3.9-0.1,7.9-0.2,12.1-0.3c3.6-0.1,6.6-8.4,6.7-14.1
		C573-338.9,572.8-340.4,572.2-341.4z"/>
	<path class="st1" d="M558.2-333.4c-3.1-4.6-24.2-2.6-27.4-7c-3.2-4.4-8.9-13.3-14.1-16.6c-11.4-7.4-37.7-6.7-53.5,9.9
		c-3.1,3.3-8.9,2.2-9.9,6.7c-1.3,6.2-6.3,25.2,0,25.3c3.6,0,7.1,0.1,10.6,0.1c0.5,4.4,4.3,7.9,8.9,7.9c4.5,0,8.2-3.3,8.8-7.7
		c13.4,0.2,26.7,0.3,41,0.2c0.7,4.2,4.4,7.5,8.8,7.5c4.5,0,8.2-3.4,8.8-7.7c3.9-0.1,7.9-0.2,12.1-0.3c3.6-0.1,6.6-8.4,6.7-14.1
		C559-330.9,558.8-332.4,558.2-333.4z"/>
	
		<text transform="matrix(1 0 0 1 -4 -298.0083)" class="st1" style="font-family:'MontserratAlternates-Regular'; font-size:98.0882px;">AVLpark</text>
	<path class="st2" d="M542.2-325.4c-3.1-4.6-24.2-2.6-27.4-7c-3.2-4.4-8.9-13.3-14.1-16.6c-11.4-7.4-37.7-6.7-53.5,9.9
		c-3.1,3.3-8.9,2.2-9.9,6.7c-1.3,6.2-6.3,25.2,0,25.3c3.6,0,7.1,0.1,10.6,0.1c0.5,4.4,4.3,7.9,8.9,7.9c4.5,0,8.2-3.3,8.8-7.7
		c13.4,0.2,26.7,0.3,41,0.2c0.7,4.2,4.4,7.5,8.8,7.5c4.5,0,8.2-3.4,8.8-7.7c3.9-0.1,7.9-0.2,12.1-0.3c3.6-0.1,6.6-8.4,6.7-14.1
		C543-322.9,542.8-324.4,542.2-325.4z"/>
	
		<text transform="matrix(1 0 0 1 228.662 -269.1422)" class="st1" style="font-family:'MontserratAlternates-Regular'; font-size:26.3511px;">Find your happy space</text>
</g>
<g>
	<path class="st1" d="M8.6,76V36.6c0-10.1,2.6-17.7,7.7-23c5.1-5.2,12.2-7.8,21.3-7.8c9.1,0,16.2,2.6,21.3,7.7
		c5.1,5.2,7.6,12.7,7.6,22.5v40H54.8V59H20.2v17H8.6z M20.2,36.1v12.2h34.6V36.6c0-6.3-1.5-11.2-4.6-14.7c-3.1-3.5-7.3-5.2-12.8-5.2
		c-5.4,0-9.7,1.7-12.7,5C21.7,25,20.2,29.8,20.2,36.1z"/>
	<path class="st1" d="M116,76h-12.9L75.5,7.4h12.9l21.1,51.2l21.1-51.2h12.9L116,76z"/>
	<path class="st1" d="M153.4,76V7.4H165V65h31.3v11H153.4z"/>
	<path class="st1" d="M235.3,23c7,0,13,2.4,18,7.3c5,4.8,7.5,11.3,7.5,19.3c0,8-2.5,14.6-7.4,19.6c-4.9,5-10.7,7.6-17.3,7.6
		c-6.6,0-12.5-2.9-17.7-8.6V95h-11V23.8h11v9.1C222.7,26.3,228.3,23,235.3,23z M218.1,50c0,5,1.5,9,4.5,12.2c3,3.2,6.7,4.8,11,4.8
		c4.3,0,8.1-1.6,11.3-4.7c3.2-3.1,4.8-7.2,4.8-12.2c0-5-1.6-9.2-4.7-12.5c-3.1-3.3-6.9-5-11.3-5c-4.4,0-8.1,1.7-11.1,5
		C219.7,40.9,218.1,45,218.1,50z"/>
	<path class="st1" d="M277.3,69.3c-4.9-5-7.4-11.5-7.4-19.6c0-8.1,2.5-14.6,7.6-19.4c5-4.8,11-7.3,17.9-7.3s12.5,3.3,17,9.8v-9h11
		V76h-11v-8.5c-2.1,3-4.8,5.3-8,6.9c-3.2,1.6-6.5,2.4-9.8,2.4C288,76.8,282.2,74.3,277.3,69.3z M280.9,50.1c0,5,1.6,9.1,4.8,12.2
		c3.2,3.1,7,4.7,11.3,4.7c4.3,0,8-1.6,11-4.8c3-3.2,4.5-7.2,4.5-12.2c0-5-1.5-9.1-4.5-12.5s-6.7-5-11.1-5c-4.4,0-8.1,1.7-11.3,5
		C282.5,41,280.9,45.1,280.9,50.1z"/>
	<path class="st1" d="M366.6,34.1c-5.4,0-9.5,1.8-12.3,5.3s-4.1,8.3-4.1,14.2V76h-11V23.8h11v10.5c1.8-3.3,4.2-5.9,7.2-8
		c3-2.1,6.3-3.2,9.7-3.2l0.1,11.1C366.9,34.1,366.7,34.1,366.6,34.1z"/>
	<path class="st1" d="M389.1,76h-11V3.2h11V46l21.2-22.2h14.1l-19.8,20.7L425.9,76h-13.3l-15.5-22.9l-7.9,8V76z"/>
</g>
<g>
	<g>
		<path class="st0" d="M750.2-21.4c-3.1-4.6-24.2-2.6-27.4-7c-3.2-4.4-8.9-13.3-14.1-16.6c-11.4-7.4-37.7-6.7-53.5,9.9
			c-3.1,3.3-8.9,2.2-9.9,6.7c-1.3,6.2-6.3,25.2,0,25.3c3.6,0,7.1,0.1,10.6,0.1c0.5,4.4,4.3,7.9,8.9,7.9c4.5,0,8.2-3.3,8.8-7.7
			c13.4,0.2,26.7,0.3,41,0.2c0.7,4.2,4.4,7.5,8.8,7.5c4.5,0,8.2-3.4,8.8-7.7c3.9-0.1,7.9-0.2,12.1-0.3c3.6-0.1,6.6-8.4,6.7-14.1
			C751-18.9,750.8-20.4,750.2-21.4z"/>
	</g>
	<g>
		<path class="st1" d="M736.2-13.4c-3.1-4.6-24.2-2.6-27.4-7c-3.2-4.4-8.9-13.3-14.1-16.6c-11.4-7.4-37.7-6.7-53.5,9.9
			c-3.1,3.3-8.9,2.2-9.9,6.7c-1.3,6.2-6.3,25.2,0,25.3c3.6,0,7.1,0.1,10.6,0.1c0.5,4.4,4.3,7.9,8.9,7.9c4.5,0,8.2-3.3,8.8-7.7
			c13.4,0.2,26.7,0.3,41,0.2c0.7,4.2,4.4,7.5,8.8,7.5c4.5,0,8.2-3.4,8.8-7.7c3.9-0.1,7.9-0.2,12.1-0.3c3.6-0.1,6.6-8.4,6.7-14.1
			C737-10.9,736.8-12.4,736.2-13.4z"/>
	</g>
	<g>
		<path class="st2" d="M720.2-5.4c-3.1-4.6-24.2-2.6-27.4-7c-3.2-4.4-8.9-13.3-14.1-16.6c-11.4-7.4-37.7-6.7-53.5,9.9
			c-3.1,3.3-8.9,2.2-9.9,6.7c-1.3,6.2-6.3,25.2,0,25.3c3.6,0,7.1,0.1,10.6,0.1c0.5,4.4,4.3,7.9,8.9,7.9c4.5,0,8.2-3.3,8.8-7.7
			c13.4,0.2,26.7,0.3,41,0.2c0.7,4.2,4.4,7.5,8.8,7.5c4.5,0,8.2-3.4,8.8-7.7c3.9-0.1,7.9-0.2,12.1-0.3c3.6-0.1,6.6-8.4,6.7-14.1
			C721-2.9,720.8-4.4,720.2-5.4z"/>
	</g>
</g>
<g>
	<path class="st1" d="M299.6,176.7c-1.3-0.6-2.7-0.8-4.3-0.8c-1.6,0-2.7,0.4-3.4,1.1c-0.7,0.7-1,1.7-1,2.9v2.2h6.5v2.9h-6.5v6.8
		h-3.1v-11.5c0-2.4,0.6-4.2,2-5.5c1.3-1.2,3-1.9,5.1-1.9c0.8,0,1.8,0.1,2.9,0.3c1.1,0.2,1.9,0.4,2.5,0.7L299.6,176.7z"/>
	<path class="st1" d="M302.7,174.9c-0.4-0.4-0.6-0.8-0.6-1.3c0-0.5,0.2-0.9,0.6-1.3c0.4-0.4,0.8-0.6,1.3-0.6c0.5,0,0.9,0.2,1.3,0.6
		c0.4,0.4,0.6,0.8,0.6,1.3c0,0.5-0.2,0.9-0.6,1.3c-0.4,0.4-0.8,0.6-1.3,0.6C303.5,175.4,303,175.2,302.7,174.9z M305.4,191.7h-3v-14
		h3V191.7z"/>
	<path class="st1" d="M312.6,184.1v7.6h-3v-14h3v2.6c0.5-0.9,1.1-1.5,2-2s1.7-0.7,2.7-0.7c1.6,0,2.9,0.5,3.8,1.4
		c1,1,1.5,2.4,1.5,4.2v8.6h-3V184c0-2.6-1.1-3.9-3.2-3.9c-1,0-1.9,0.3-2.7,1C313,181.8,312.6,182.8,312.6,184.1z"/>
	<path class="st1" d="M327.8,189.9c-1.3-1.3-2-3.1-2-5.3c0-2.2,0.7-3.9,2-5.2c1.4-1.3,3-1.9,4.8-1.9c1.9,0,3.4,0.8,4.5,2.4v-7.7h3
		v19.6h-3v-2.1c-1.1,1.5-2.7,2.3-4.8,2.3C330.7,191.9,329.1,191.2,327.8,189.9z M328.8,184.7c0,1.3,0.4,2.4,1.3,3.3
		c0.9,0.8,1.9,1.3,3,1.3c1.2,0,2.1-0.4,3-1.3c0.8-0.9,1.2-1.9,1.2-3.3c0-1.3-0.4-2.5-1.2-3.3c-0.8-0.9-1.8-1.3-3-1.3
		c-1.2,0-2.2,0.4-3,1.3C329.2,182.3,328.8,183.4,328.8,184.7z"/>
	<path class="st1" d="M357.5,194.6c2.6,0,3.9-1.7,3.9-5v-0.9c-1.2,1.2-2.7,1.8-4.5,1.8c-3.6,0-5.5-2-5.5-6v-6.9h3v5.6
		c0,1.6,0.2,2.8,0.8,3.5s1.4,1,2.6,1s2.1-0.3,2.7-0.9c0.6-0.6,0.9-1.6,1-2.8v-6.3h3v12c0,2.4-0.6,4.3-1.9,5.6c-1.3,1.3-2.9,2-4.9,2
		c-1.5,0-2.9-0.4-4.1-1.1s-2-1.8-2.5-3.2l2.7-1.1C354.2,193.7,355.5,194.6,357.5,194.6z"/>
	<path class="st1" d="M380.4,189.8c-1.4,1.4-3.2,2.1-5.3,2.1c-2.1,0-3.9-0.7-5.3-2.1s-2.1-3.1-2.1-5.1c0-2,0.7-3.7,2.1-5.1
		s3.2-2.1,5.3-2.1c2.1,0,3.9,0.7,5.3,2.1s2.1,3.1,2.1,5.1C382.5,186.7,381.8,188.4,380.4,189.8z M371.9,188c0.8,0.9,1.9,1.3,3.2,1.3
		c1.3,0,2.3-0.4,3.2-1.3s1.3-2,1.3-3.3c0-1.4-0.4-2.5-1.3-3.3s-1.9-1.3-3.2-1.3c-1.3,0-2.3,0.4-3.2,1.3c-0.8,0.9-1.3,2-1.3,3.3
		C370.7,186,371.1,187.1,371.9,188z"/>
	<path class="st1" d="M395.6,185.2v-7.6h3v14h-3v-2.6c-0.5,0.9-1.1,1.5-2,2c-0.8,0.5-1.7,0.7-2.7,0.7c-1.6,0-2.9-0.5-3.8-1.4
		c-1-1-1.5-2.4-1.5-4.2v-8.6h3v7.7c0,2.6,1.1,3.9,3.2,3.9c1,0,1.9-0.3,2.7-1C395.2,187.5,395.6,186.5,395.6,185.2z"/>
	<path class="st1" d="M410.2,180.4c-1.5,0-2.6,0.5-3.3,1.4c-0.7,0.9-1.1,2.2-1.1,3.8v6h-3v-14h3v2.8c0.5-0.9,1.1-1.6,1.9-2.2
		c0.8-0.6,1.7-0.9,2.6-0.9l0,3C410.3,180.4,410.2,180.4,410.2,180.4z"/>
	<path class="st1" d="M423.5,184.1v7.6h-3v-19.5h3v8.1c0.4-0.9,1.1-1.5,1.9-2c0.9-0.5,1.8-0.7,2.8-0.7c1.6,0,2.9,0.5,3.8,1.4
		c1,1,1.5,2.4,1.5,4.2v8.6h-3V184c0-2.6-1.1-3.9-3.2-3.9c-1,0-1.9,0.3-2.7,1C423.8,181.8,423.5,182.8,423.5,184.1z"/>
	<path class="st1" d="M438.6,189.9c-1.3-1.3-2-3.1-2-5.3c0-2.2,0.7-3.9,2-5.2c1.4-1.3,3-1.9,4.8-1.9s3.4,0.9,4.6,2.6v-2.4h3v14h-3
		v-2.3c-0.6,0.8-1.3,1.4-2.1,1.9c-0.9,0.4-1.7,0.6-2.6,0.6C441.5,191.9,439.9,191.2,438.6,189.9z M439.6,184.7
		c0,1.3,0.4,2.4,1.3,3.3c0.9,0.8,1.9,1.3,3,1.3c1.2,0,2.1-0.4,3-1.3c0.8-0.9,1.2-1.9,1.2-3.3c0-1.3-0.4-2.5-1.2-3.3
		c-0.8-0.9-1.8-1.3-3-1.3c-1.2,0-2.2,0.4-3,1.3C440,182.3,439.6,183.4,439.6,184.7z"/>
	<path class="st1" d="M462.8,177.4c1.9,0,3.5,0.7,4.8,1.9c1.3,1.3,2,3,2,5.2c0,2.2-0.7,3.9-2,5.3s-2.9,2-4.6,2s-3.4-0.8-4.8-2.3v7.2
		h-3v-19.1h3v2.5C459.4,178.3,460.9,177.4,462.8,177.4z M458.2,184.7c0,1.3,0.4,2.4,1.2,3.3c0.8,0.9,1.8,1.3,3,1.3
		c1.2,0,2.2-0.4,3-1.3c0.9-0.8,1.3-1.9,1.3-3.3s-0.4-2.5-1.3-3.3c-0.8-0.9-1.9-1.3-3-1.3s-2.2,0.4-3,1.3
		C458.6,182.2,458.2,183.3,458.2,184.7z"/>
	<path class="st1" d="M480.5,177.4c1.9,0,3.5,0.7,4.8,1.9c1.3,1.3,2,3,2,5.2c0,2.2-0.7,3.9-2,5.3s-2.9,2-4.6,2s-3.4-0.8-4.8-2.3v7.2
		h-3v-19.1h3v2.5C477.1,178.3,478.6,177.4,480.5,177.4z M475.9,184.7c0,1.3,0.4,2.4,1.2,3.3c0.8,0.9,1.8,1.3,3,1.3
		c1.2,0,2.2-0.4,3-1.3c0.9-0.8,1.3-1.9,1.3-3.3s-0.4-2.5-1.3-3.3c-0.8-0.9-1.9-1.3-3-1.3s-2.2,0.4-3,1.3
		C476.3,182.2,475.9,183.3,475.9,184.7z"/>
	<path class="st1" d="M496.5,194.6c2.6,0,3.9-1.7,3.9-5v-0.9c-1.2,1.2-2.7,1.8-4.5,1.8c-3.6,0-5.5-2-5.5-6v-6.9h3v5.6
		c0,1.6,0.2,2.8,0.8,3.5s1.4,1,2.6,1s2.1-0.3,2.7-0.9c0.6-0.6,0.9-1.6,1-2.8v-6.3h3v12c0,2.4-0.6,4.3-1.9,5.6c-1.3,1.3-2.9,2-4.9,2
		c-1.5,0-2.9-0.4-4.1-1.1s-2-1.8-2.5-3.2l2.7-1.1C493.2,193.7,494.5,194.6,496.5,194.6z"/>
	<path class="st1" d="M524.9,187.5c0,1.3-0.5,2.4-1.4,3.2c-1,0.8-2.2,1.2-3.7,1.2c-1,0-2.1-0.2-3.2-0.6s-2.1-0.9-2.9-1.6l1.4-2.3
		c1.6,1.2,3.2,1.8,4.7,1.8c0.7,0,1.2-0.2,1.6-0.5c0.4-0.3,0.6-0.7,0.6-1.2c0-0.7-0.9-1.3-2.8-1.9c-0.1-0.1-0.2-0.1-0.3-0.1
		c-2.9-0.8-4.4-2.1-4.4-4c0-1.3,0.5-2.3,1.5-3.1c1-0.8,2.3-1.2,3.9-1.2c1.6,0,3.1,0.5,4.6,1.4l-1.1,2.2c-1.1-0.8-2.4-1.1-3.7-1.1
		c-0.7,0-1.3,0.1-1.7,0.4c-0.4,0.3-0.7,0.6-0.7,1.1c0,0.5,0.2,0.8,0.7,1c0.3,0.2,0.8,0.3,1.3,0.4c0.6,0.1,1.1,0.3,1.5,0.4
		c0.4,0.1,0.9,0.3,1.3,0.5c0.4,0.2,0.9,0.4,1.3,0.7C524.4,185.2,524.9,186.1,524.9,187.5z"/>
	<path class="st1" d="M535.7,177.4c1.9,0,3.5,0.7,4.8,1.9c1.3,1.3,2,3,2,5.2c0,2.2-0.7,3.9-2,5.3s-2.9,2-4.6,2s-3.4-0.8-4.8-2.3v7.2
		h-3v-19.1h3v2.5C532.3,178.3,533.8,177.4,535.7,177.4z M531.1,184.7c0,1.3,0.4,2.4,1.2,3.3c0.8,0.9,1.8,1.3,3,1.3
		c1.2,0,2.2-0.4,3-1.3c0.9-0.8,1.3-1.9,1.3-3.3s-0.4-2.5-1.3-3.3c-0.8-0.9-1.9-1.3-3-1.3s-2.2,0.4-3,1.3
		C531.5,182.2,531.1,183.3,531.1,184.7z"/>
	<path class="st1" d="M547,189.9c-1.3-1.3-2-3.1-2-5.3c0-2.2,0.7-3.9,2-5.2c1.4-1.3,3-1.9,4.8-1.9s3.4,0.9,4.6,2.6v-2.4h3v14h-3
		v-2.3c-0.6,0.8-1.3,1.4-2.1,1.9c-0.9,0.4-1.7,0.6-2.6,0.6C549.9,191.9,548.3,191.2,547,189.9z M548,184.7c0,1.3,0.4,2.4,1.3,3.3
		c0.9,0.8,1.9,1.3,3,1.3c1.2,0,2.1-0.4,3-1.3c0.8-0.9,1.2-1.9,1.2-3.3c0-1.3-0.4-2.5-1.2-3.3c-0.8-0.9-1.8-1.3-3-1.3
		c-1.2,0-2.2,0.4-3,1.3C548.4,182.3,548,183.4,548,184.7z"/>
	<path class="st1" d="M569.9,191.9c-2,0-3.6-0.7-5-2s-2.1-3.1-2.1-5.2c0-2.1,0.7-3.9,2.2-5.2s3.3-2,5.4-2c2.1,0,3.9,0.7,5.3,2.2
		l-1.7,2.1c-1.2-1.1-2.4-1.6-3.7-1.6c-1.2,0-2.3,0.4-3.2,1.2c-0.9,0.8-1.4,1.9-1.4,3.2s0.4,2.4,1.3,3.3c0.9,0.9,2,1.3,3.3,1.3
		s2.5-0.6,3.7-1.8l1.7,1.9C574,191,572.1,191.9,569.9,191.9z"/>
	<path class="st1" d="M585.2,177.4c1.9,0,3.5,0.5,4.8,1.6c1.3,1.1,1.9,2.4,1.9,4.2l0,0.1l-10.2,4.3c0.9,1.1,2.2,1.7,3.7,1.7
		s2.9-0.6,3.9-1.8l1.7,1.9c-1.7,1.7-3.6,2.6-5.9,2.6c-2,0-3.7-0.7-5.1-2s-2.1-3.1-2.1-5.2c0-1.5,0.4-2.8,1.1-3.9
		c0.7-1.1,1.7-2,2.7-2.5C582.8,177.7,584,177.4,585.2,177.4z M580.7,184.7c0,0.2,0,0.4,0,0.5l7.8-3.3c-0.6-1.2-1.7-1.7-3.2-1.7
		c-1.2,0-2.2,0.4-3.2,1.2C581.2,182.2,580.7,183.3,580.7,184.7z"/>
</g>
</svg>
