<?xml version="1.0" encoding="utf-8"?>
<!-- Generator: Adobe Illustrator 19.1.0, SVG Export Plug-In . SVG Version: 6.00 Build 0)  -->
<svg version="1.1" id="Layer_1" xmlns="http://www.w3.org/2000/svg" xmlns:xlink="http://www.w3.org/1999/xlink" x="0px" y="0px"
	 viewBox="0 0 321.3 39.3" style="enable-background:new 0 0 321.3 39.3;" xml:space="preserve">
<style type="text/css">
	.st0{fill:#007CB8;}
	.st1{fill:#00A4D7;}
	.st2{fill:#00DA6F;}
</style>
<g>
	<path class="st0" d="M294.5-504.4c-3.1-4.6-24.2-2.6-27.4-7c-3.2-4.4-8.9-13.3-14.1-16.6c-11.4-7.4-37.7-6.7-53.5,9.9
		c-3.1,3.3-8.9,2.2-9.9,6.7c-1.3,6.2-6.3,25.2,0,25.3c3.6,0,7.1,0.1,10.6,0.1c0.5,4.4,4.3,7.9,8.9,7.9c4.5,0,8.2-3.3,8.8-7.7
		c13.4,0.2,26.7,0.3,41,0.2c0.7,4.2,4.4,7.5,8.8,7.5c4.5,0,8.2-3.4,8.8-7.7c3.9-0.1,7.9-0.2,12.1-0.3c3.6-0.1,6.6-8.4,6.7-14.1
		C295.4-501.9,295.1-503.4,294.5-504.4z"/>
	<path class="st1" d="M280.5-496.4c-3.1-4.6-24.2-2.6-27.4-7c-3.2-4.4-8.9-13.3-14.1-16.6c-11.4-7.4-37.7-6.7-53.5,9.9
		c-3.1,3.3-8.9,2.2-9.9,6.7c-1.3,6.2-6.3,25.2,0,25.3c3.6,0,7.1,0.1,10.6,0.1c0.5,4.4,4.3,7.9,8.9,7.9c4.5,0,8.2-3.3,8.8-7.7
		c13.4,0.2,26.7,0.3,41,0.2c0.7,4.2,4.4,7.5,8.8,7.5c4.5,0,8.2-3.4,8.8-7.7c3.9-0.1,7.9-0.2,12.1-0.3c3.6-0.1,6.6-8.4,6.7-14.1
		C281.4-493.9,281.1-495.4,280.5-496.4z"/>
	
		<text transform="matrix(1 0 0 1 -281.6617 -461.0083)" class="st1" style="font-family:'MontserratAlternates-Regular'; font-size:98.0882px;">AVLpark</text>
	<path class="st2" d="M264.5-488.4c-3.1-4.6-24.2-2.6-27.4-7c-3.2-4.4-8.9-13.3-14.1-16.6c-11.4-7.4-37.7-6.7-53.5,9.9
		c-3.1,3.3-8.9,2.2-9.9,6.7c-1.3,6.2-6.3,25.2,0,25.3c3.6,0,7.1,0.1,10.6,0.1c0.5,4.4,4.3,7.9,8.9,7.9c4.5,0,8.2-3.3,8.8-7.7
		c13.4,0.2,26.7,0.3,41,0.2c0.7,4.2,4.4,7.5,8.8,7.5c4.5,0,8.2-3.4,8.8-7.7c3.9-0.1,7.9-0.2,12.1-0.3c3.6-0.1,6.6-8.4,6.7-14.1
		C265.4-485.9,265.1-487.4,264.5-488.4z"/>
	
		<text transform="matrix(1 0 0 1 -48.9997 -432.1422)" class="st1" style="font-family:'MontserratAlternates-Regular'; font-size:26.3511px;">Find your happy space</text>
</g>
<g>
	<path class="st1" d="M-269-87v-39.4c0-10.1,2.6-17.7,7.7-23c5.1-5.2,12.2-7.8,21.3-7.8c9.1,0,16.2,2.6,21.3,7.7
		c5.1,5.2,7.6,12.7,7.6,22.5v40h-11.7v-17h-34.6v17H-269z M-257.5-126.9v12.2h34.6v-11.7c0-6.3-1.5-11.2-4.6-14.7
		c-3.1-3.5-7.3-5.2-12.8-5.2c-5.4,0-9.7,1.7-12.7,5C-255.9-138-257.5-133.2-257.5-126.9z"/>
	<path class="st1" d="M-161.6-87h-12.9l-27.6-68.6h12.9l21.1,51.2l21.1-51.2h12.9L-161.6-87z"/>
	<path class="st1" d="M-124.3-87v-68.6h11.6V-98h31.3v11H-124.3z"/>
	<path class="st1" d="M-42.3-140c7,0,13,2.4,18,7.3c5,4.8,7.5,11.3,7.5,19.3c0,8-2.5,14.6-7.4,19.6c-4.9,5-10.7,7.6-17.3,7.6
		c-6.6,0-12.5-2.9-17.7-8.6V-68h-11v-71.2h11v9.1C-55-136.7-49.3-140-42.3-140z M-59.5-113c0,5,1.5,9,4.5,12.2c3,3.2,6.7,4.8,11,4.8
		c4.3,0,8.1-1.6,11.3-4.7c3.2-3.1,4.8-7.2,4.8-12.2c0-5-1.6-9.2-4.7-12.5c-3.1-3.3-6.9-5-11.3-5c-4.4,0-8.1,1.7-11.1,5
		C-58-122.1-59.5-118-59.5-113z"/>
	<path class="st1" d="M-0.4-93.7c-4.9-5-7.4-11.5-7.4-19.6c0-8.1,2.5-14.6,7.6-19.4c5-4.8,11-7.3,17.9-7.3s12.5,3.3,17,9.8v-9h11
		V-87h-11v-8.5c-2.1,3-4.8,5.3-8,6.9c-3.2,1.6-6.5,2.4-9.8,2.4C10.3-86.2,4.5-88.7-0.4-93.7z M3.3-112.9c0,5,1.6,9.1,4.8,12.2
		c3.2,3.1,7,4.7,11.3,4.7c4.3,0,8-1.6,11-4.8s4.5-7.2,4.5-12.2c0-5-1.5-9.1-4.5-12.5c-3-3.3-6.7-5-11.1-5c-4.4,0-8.1,1.7-11.3,5
		C4.8-122,3.3-117.9,3.3-112.9z"/>
	<path class="st1" d="M88.9-128.9c-5.4,0-9.5,1.8-12.3,5.3s-4.1,8.3-4.1,14.2V-87h-11v-52.2h11v10.5c1.8-3.3,4.2-5.9,7.2-8
		c3-2.1,6.3-3.2,9.7-3.2l0.1,11.1C89.3-128.9,89.1-128.9,88.9-128.9z"/>
	<path class="st1" d="M111.5-87h-11v-72.8h11v42.8l21.2-22.2h14.1l-19.8,20.7L148.2-87h-13.3l-15.5-22.9l-7.9,8V-87z"/>
</g>
<g>
	<g>
		<path class="st0" d="M469.5-184.4c-3.1-4.6-24.2-2.6-27.4-7c-3.2-4.4-8.9-13.3-14.1-16.6c-11.4-7.4-37.7-6.7-53.5,9.9
			c-3.1,3.3-8.9,2.2-9.9,6.7c-1.3,6.2-6.3,25.2,0,25.3c3.6,0,7.1,0.1,10.6,0.1c0.5,4.4,4.3,7.9,8.9,7.9c4.5,0,8.2-3.3,8.8-7.7
			c13.4,0.2,26.7,0.3,41,0.2c0.7,4.2,4.4,7.5,8.8,7.5c4.5,0,8.2-3.4,8.8-7.7c3.9-0.1,7.9-0.2,12.1-0.3c3.6-0.1,6.6-8.4,6.7-14.1
			C470.4-181.9,470.1-183.4,469.5-184.4z"/>
	</g>
	<g>
		<path class="st1" d="M455.5-176.4c-3.1-4.6-24.2-2.6-27.4-7c-3.2-4.4-8.9-13.3-14.1-16.6c-11.4-7.4-37.7-6.7-53.5,9.9
			c-3.1,3.3-8.9,2.2-9.9,6.7c-1.3,6.2-6.3,25.2,0,25.3c3.6,0,7.1,0.1,10.6,0.1c0.5,4.4,4.3,7.9,8.9,7.9c4.5,0,8.2-3.3,8.8-7.7
			c13.4,0.2,26.7,0.3,41,0.2c0.7,4.2,4.4,7.5,8.8,7.5c4.5,0,8.2-3.4,8.8-7.7c3.9-0.1,7.9-0.2,12.1-0.3c3.6-0.1,6.6-8.4,6.7-14.1
			C456.4-173.9,456.1-175.4,455.5-176.4z"/>
	</g>
	<g>
		<path class="st2" d="M439.5-168.4c-3.1-4.6-24.2-2.6-27.4-7c-3.2-4.4-8.9-13.3-14.1-16.6c-11.4-7.4-37.7-6.7-53.5,9.9
			c-3.1,3.3-8.9,2.2-9.9,6.7c-1.3,6.2-6.3,25.2,0,25.3c3.6,0,7.1,0.1,10.6,0.1c0.5,4.4,4.3,7.9,8.9,7.9c4.5,0,8.2-3.3,8.8-7.7
			c13.4,0.2,26.7,0.3,41,0.2c0.7,4.2,4.4,7.5,8.8,7.5c4.5,0,8.2-3.4,8.8-7.7c3.9-0.1,7.9-0.2,12.1-0.3c3.6-0.1,6.6-8.4,6.7-14.1
			C440.4-165.9,440.1-167.4,439.5-168.4z"/>
	</g>
</g>
<g>
	<path class="st1" d="M21.9,13.7c-1.3-0.6-2.7-0.8-4.3-0.8c-1.6,0-2.7,0.4-3.4,1.1c-0.7,0.7-1,1.7-1,2.9V19h6.5v2.9h-6.5v6.8h-3.1
		V17.1c0-2.4,0.6-4.2,2-5.5c1.3-1.2,3-1.9,5.1-1.9c0.8,0,1.8,0.1,2.9,0.3c1.1,0.2,1.9,0.4,2.5,0.7L21.9,13.7z"/>
	<path class="st1" d="M25,11.9c-0.4-0.4-0.6-0.8-0.6-1.3c0-0.5,0.2-0.9,0.6-1.3c0.4-0.4,0.8-0.6,1.3-0.6c0.5,0,0.9,0.2,1.3,0.6
		c0.4,0.4,0.6,0.8,0.6,1.3c0,0.5-0.2,0.9-0.6,1.3c-0.4,0.4-0.8,0.6-1.3,0.6C25.8,12.4,25.4,12.2,25,11.9z M27.8,28.7h-3v-14h3V28.7z
		"/>
	<path class="st1" d="M35,21.1v7.6h-3v-14h3v2.6c0.5-0.9,1.1-1.5,2-2s1.7-0.7,2.7-0.7c1.6,0,2.9,0.5,3.8,1.4c1,1,1.5,2.4,1.5,4.2
		v8.6h-3V21c0-2.6-1.1-3.9-3.2-3.9c-1,0-1.9,0.3-2.7,1C35.4,18.8,35,19.8,35,21.1z"/>
	<path class="st1" d="M50.1,26.9c-1.3-1.3-2-3.1-2-5.3c0-2.2,0.7-3.9,2-5.2c1.4-1.3,3-1.9,4.8-1.9c1.9,0,3.4,0.8,4.5,2.4V9.1h3v19.6
		h-3v-2.1c-1.1,1.5-2.7,2.3-4.8,2.3C53,28.9,51.4,28.2,50.1,26.9z M51.1,21.7c0,1.3,0.4,2.4,1.3,3.3c0.9,0.8,1.9,1.3,3,1.3
		c1.2,0,2.1-0.4,3-1.3c0.8-0.9,1.2-1.9,1.2-3.3c0-1.3-0.4-2.5-1.2-3.3c-0.8-0.9-1.8-1.3-3-1.3c-1.2,0-2.2,0.4-3,1.3
		C51.5,19.3,51.1,20.4,51.1,21.7z"/>
	<path class="st1" d="M79.8,31.6c2.6,0,3.9-1.7,3.9-5v-0.9c-1.2,1.2-2.7,1.8-4.5,1.8c-3.6,0-5.5-2-5.5-6v-6.9h3v5.6
		c0,1.6,0.2,2.8,0.8,3.5s1.4,1,2.6,1s2.1-0.3,2.7-0.9c0.6-0.6,0.9-1.6,1-2.8v-6.3h3v12c0,2.4-0.6,4.3-1.9,5.6c-1.3,1.3-2.9,2-4.9,2
		c-1.5,0-2.9-0.4-4.1-1.1s-2-1.8-2.5-3.2l2.7-1.1C76.5,30.7,77.9,31.6,79.8,31.6z"/>
	<path class="st1" d="M102.7,26.8c-1.4,1.4-3.2,2.1-5.3,2.1c-2.1,0-3.9-0.7-5.3-2.1s-2.1-3.1-2.1-5.1c0-2,0.7-3.7,2.1-5.1
		s3.2-2.1,5.3-2.1c2.1,0,3.9,0.7,5.3,2.1s2.1,3.1,2.1,5.1C104.8,23.7,104.1,25.4,102.7,26.8z M94.3,25c0.8,0.9,1.9,1.3,3.2,1.3
		c1.3,0,2.3-0.4,3.2-1.3s1.3-2,1.3-3.3c0-1.4-0.4-2.5-1.3-3.3s-1.9-1.3-3.2-1.3c-1.3,0-2.3,0.4-3.2,1.3c-0.8,0.9-1.3,2-1.3,3.3
		C93,23,93.4,24.1,94.3,25z"/>
	<path class="st1" d="M118,22.2v-7.6h3v14h-3v-2.6c-0.5,0.9-1.1,1.5-2,2c-0.8,0.5-1.7,0.7-2.7,0.7c-1.6,0-2.9-0.5-3.8-1.4
		c-1-1-1.5-2.4-1.5-4.2v-8.6h3v7.7c0,2.6,1.1,3.9,3.2,3.9c1,0,1.9-0.3,2.7-1C117.6,24.5,118,23.5,118,22.2z"/>
	<path class="st1" d="M132.5,17.4c-1.5,0-2.6,0.5-3.3,1.4c-0.7,0.9-1.1,2.2-1.1,3.8v6h-3v-14h3v2.8c0.5-0.9,1.1-1.6,1.9-2.2
		c0.8-0.6,1.7-0.9,2.6-0.9l0,3C132.6,17.4,132.6,17.4,132.5,17.4z"/>
	<path class="st1" d="M145.8,21.1v7.6h-3V9.1h3v8.1c0.4-0.9,1.1-1.5,1.9-2c0.9-0.5,1.8-0.7,2.8-0.7c1.6,0,2.9,0.5,3.8,1.4
		c1,1,1.5,2.4,1.5,4.2v8.6h-3V21c0-2.6-1.1-3.9-3.2-3.9c-1,0-1.9,0.3-2.7,1C146.2,18.8,145.8,19.8,145.8,21.1z"/>
	<path class="st1" d="M161,26.9c-1.3-1.3-2-3.1-2-5.3c0-2.2,0.7-3.9,2-5.2c1.4-1.3,3-1.9,4.8-1.9s3.4,0.9,4.6,2.6v-2.4h3v14h-3v-2.3
		c-0.6,0.8-1.3,1.4-2.1,1.9c-0.9,0.4-1.7,0.6-2.6,0.6C163.8,28.9,162.3,28.2,161,26.9z M161.9,21.7c0,1.3,0.4,2.4,1.3,3.3
		c0.9,0.8,1.9,1.3,3,1.3c1.2,0,2.1-0.4,3-1.3c0.8-0.9,1.2-1.9,1.2-3.3c0-1.3-0.4-2.5-1.2-3.3c-0.8-0.9-1.8-1.3-3-1.3
		c-1.2,0-2.2,0.4-3,1.3C162.4,19.3,161.9,20.4,161.9,21.7z"/>
	<path class="st1" d="M185.1,14.4c1.9,0,3.5,0.7,4.8,1.9c1.3,1.3,2,3,2,5.2c0,2.2-0.7,3.9-2,5.3s-2.9,2-4.6,2s-3.4-0.8-4.8-2.3v7.2
		h-3V14.6h3v2.5C181.7,15.3,183.2,14.4,185.1,14.4z M180.5,21.7c0,1.3,0.4,2.4,1.2,3.3c0.8,0.9,1.8,1.3,3,1.3c1.2,0,2.2-0.4,3-1.3
		c0.9-0.8,1.3-1.9,1.3-3.3s-0.4-2.5-1.3-3.3c-0.8-0.9-1.9-1.3-3-1.3s-2.2,0.4-3,1.3C180.9,19.2,180.5,20.3,180.5,21.7z"/>
	<path class="st1" d="M202.8,14.4c1.9,0,3.5,0.7,4.8,1.9c1.3,1.3,2,3,2,5.2c0,2.2-0.7,3.9-2,5.3s-2.9,2-4.6,2s-3.4-0.8-4.8-2.3v7.2
		h-3V14.6h3v2.5C199.4,15.3,200.9,14.4,202.8,14.4z M198.2,21.7c0,1.3,0.4,2.4,1.2,3.3c0.8,0.9,1.8,1.3,3,1.3c1.2,0,2.2-0.4,3-1.3
		c0.9-0.8,1.3-1.9,1.3-3.3s-0.4-2.5-1.3-3.3c-0.8-0.9-1.9-1.3-3-1.3s-2.2,0.4-3,1.3C198.6,19.2,198.2,20.3,198.2,21.7z"/>
	<path class="st1" d="M218.8,31.6c2.6,0,3.9-1.7,3.9-5v-0.9c-1.2,1.2-2.7,1.8-4.5,1.8c-3.6,0-5.5-2-5.5-6v-6.9h3v5.6
		c0,1.6,0.2,2.8,0.8,3.5s1.4,1,2.6,1s2.1-0.3,2.7-0.9c0.6-0.6,0.9-1.6,1-2.8v-6.3h3v12c0,2.4-0.6,4.3-1.9,5.6c-1.3,1.3-2.9,2-4.9,2
		c-1.5,0-2.9-0.4-4.1-1.1s-2-1.8-2.5-3.2l2.7-1.1C215.6,30.7,216.9,31.6,218.8,31.6z"/>
	<path class="st1" d="M247.2,24.5c0,1.3-0.5,2.4-1.4,3.2c-1,0.8-2.2,1.2-3.7,1.2c-1,0-2.1-0.2-3.2-0.6s-2.1-0.9-2.9-1.6l1.4-2.3
		c1.6,1.2,3.2,1.8,4.7,1.8c0.7,0,1.2-0.2,1.6-0.5c0.4-0.3,0.6-0.7,0.6-1.2c0-0.7-0.9-1.3-2.8-1.9c-0.1-0.1-0.2-0.1-0.3-0.1
		c-2.9-0.8-4.4-2.1-4.4-4c0-1.3,0.5-2.3,1.5-3.1c1-0.8,2.3-1.2,3.9-1.2c1.6,0,3.1,0.5,4.6,1.4l-1.1,2.2c-1.1-0.8-2.4-1.1-3.7-1.1
		c-0.7,0-1.3,0.1-1.7,0.4c-0.4,0.3-0.7,0.6-0.7,1.1c0,0.5,0.2,0.8,0.7,1c0.3,0.2,0.8,0.3,1.3,0.4c0.6,0.1,1.1,0.3,1.5,0.4
		c0.4,0.1,0.9,0.3,1.3,0.5c0.4,0.2,0.9,0.4,1.3,0.7C246.7,22.2,247.2,23.1,247.2,24.5z"/>
	<path class="st1" d="M258.1,14.4c1.9,0,3.5,0.7,4.8,1.9c1.3,1.3,2,3,2,5.2c0,2.2-0.7,3.9-2,5.3s-2.9,2-4.6,2s-3.4-0.8-4.8-2.3v7.2
		h-3V14.6h3v2.5C254.7,15.3,256.2,14.4,258.1,14.4z M253.5,21.7c0,1.3,0.4,2.4,1.2,3.3c0.8,0.9,1.8,1.3,3,1.3c1.2,0,2.2-0.4,3-1.3
		c0.9-0.8,1.3-1.9,1.3-3.3s-0.4-2.5-1.3-3.3c-0.8-0.9-1.9-1.3-3-1.3s-2.2,0.4-3,1.3C253.9,19.2,253.5,20.3,253.5,21.7z"/>
	<path class="st1" d="M269.3,26.9c-1.3-1.3-2-3.1-2-5.3c0-2.2,0.7-3.9,2-5.2c1.4-1.3,3-1.9,4.8-1.9s3.4,0.9,4.6,2.6v-2.4h3v14h-3
		v-2.3c-0.6,0.8-1.3,1.4-2.1,1.9c-0.9,0.4-1.7,0.6-2.6,0.6C272.2,28.9,270.7,28.2,269.3,26.9z M270.3,21.7c0,1.3,0.4,2.4,1.3,3.3
		c0.9,0.8,1.9,1.3,3,1.3c1.2,0,2.1-0.4,3-1.3c0.8-0.9,1.2-1.9,1.2-3.3c0-1.3-0.4-2.5-1.2-3.3c-0.8-0.9-1.8-1.3-3-1.3
		c-1.2,0-2.2,0.4-3,1.3C270.7,19.3,270.3,20.4,270.3,21.7z"/>
	<path class="st1" d="M292.2,28.9c-2,0-3.6-0.7-5-2s-2.1-3.1-2.1-5.2c0-2.1,0.7-3.9,2.2-5.2s3.3-2,5.4-2c2.1,0,3.9,0.7,5.3,2.2
		l-1.7,2.1c-1.2-1.1-2.4-1.6-3.7-1.6c-1.2,0-2.3,0.4-3.2,1.2c-0.9,0.8-1.4,1.9-1.4,3.2s0.4,2.4,1.3,3.3c0.9,0.9,2,1.3,3.3,1.3
		s2.5-0.6,3.7-1.8l1.7,1.9C296.4,28,294.4,28.9,292.2,28.9z"/>
	<path class="st1" d="M307.5,14.4c1.9,0,3.5,0.5,4.8,1.6c1.3,1.1,1.9,2.4,1.9,4.2l0,0.1L304,24.5c0.9,1.1,2.2,1.7,3.7,1.7
		s2.9-0.6,3.9-1.8l1.7,1.9c-1.7,1.7-3.6,2.6-5.9,2.6c-2,0-3.7-0.7-5.1-2s-2.1-3.1-2.1-5.2c0-1.5,0.4-2.8,1.1-3.9
		c0.7-1.1,1.7-2,2.7-2.5C305.2,14.7,306.3,14.4,307.5,14.4z M303.1,21.7c0,0.2,0,0.4,0,0.5l7.8-3.3c-0.6-1.2-1.7-1.7-3.2-1.7
		c-1.2,0-2.2,0.4-3.2,1.2C303.6,19.2,303.1,20.3,303.1,21.7z"/>
</g>
</svg>
